# Blender v2.90.1 OBJ File: ''
# www.blender.org
mtllib saku.mtl
o Cube
v 0.500000 10.000000 9.500000
v 0.500000 0.000000 9.500000
v 0.500000 10.000000 10.500000
v 0.500000 0.000000 10.500000
v -0.500000 10.000000 9.500000
v -0.500000 0.000000 9.500000
v -0.500000 10.000000 10.500000
v -0.500000 0.000000 10.500000
v -0.500000 0.000000 -9.500000
v -0.500000 10.000000 -9.500000
v -0.500000 0.000000 -10.500000
v -0.500000 10.000000 -10.500000
v 0.500000 0.000000 -9.500000
v 0.500000 10.000000 -9.500000
v 0.500000 0.000000 -10.500000
v 0.500000 10.000000 -10.500000
v -0.200000 7.360609 12.000000
v -0.200000 9.760609 12.000000
v -0.200000 7.360609 -12.000000
v -0.200000 9.760609 -12.000000
v 0.200000 7.360609 12.000000
v 0.200000 9.760609 12.000000
v 0.200000 7.360609 -12.000000
v 0.200000 9.760609 -12.000000
v -0.200000 3.486357 12.000000
v -0.200000 5.886356 12.000000
v -0.200000 3.486357 -12.000000
v -0.200000 5.886356 -12.000000
v 0.200000 3.486357 12.000000
v 0.200000 5.886356 12.000000
v 0.200000 3.486357 -12.000000
v 0.200000 5.886356 -12.000000
vt 0.760417 0.416667
vt 0.760417 0.000000
vt 0.812500 0.000000
vt 0.812500 0.416667
vt 0.812500 0.416667
vt 0.812500 0.000000
vt 0.864583 0.000000
vt 0.864583 0.416667
vt 0.604167 0.416667
vt 0.604167 0.000000
vt 0.656250 0.000000
vt 0.656250 0.416667
vt 0.500000 0.416667
vt 0.500000 0.000000
vt 0.552083 0.000000
vt 0.552083 0.416667
vt 0.552083 0.458333
vt 0.604166 0.458333
vt 0.604166 0.500000
vt 0.552083 0.500000
vt 0.500000 0.416667
vt 0.552083 0.416667
vt 0.552083 0.458333
vt 0.500000 0.458333
vt 0.708333 0.416667
vt 0.708333 0.000000
vt 0.760417 0.000000
vt 0.760417 0.416667
vt 0.864583 0.416667
vt 0.864583 0.000000
vt 0.916667 0.000000
vt 0.916667 0.416667
vt 0.552084 0.416667
vt 0.552083 0.000000
vt 0.604167 0.000000
vt 0.604167 0.416667
vt 0.656250 0.416667
vt 0.656250 0.000000
vt 0.604167 0.458333
vt 0.552083 0.458333
vt 0.552083 0.416667
vt 0.604167 0.416667
vt 0.552083 0.500000
vt 0.500000 0.500000
vt 0.500000 0.458333
vt 0.552083 0.458333
vt 0.250000 1.000000
vt 0.250000 0.000000
vt 0.375000 0.000000
vt 0.375000 1.000000
vt 0.625000 0.516667
vt 0.604167 0.516667
vt 0.604167 0.416667
vt 0.625000 0.416667
vt 0.500000 0.000000
vt 0.500000 1.000000
vt 0.375000 1.000000
vt 0.375000 0.000000
vt 0.645833 0.516667
vt 0.625000 0.516667
vt 0.625000 0.416667
vt 0.645833 0.416667
vt 0.916666 1.000000
vt 0.916667 0.000000
vt 0.937500 0.000000
vt 0.937500 1.000000
vt 1.000000 0.000000
vt 1.000000 1.000000
vt 0.979167 1.000000
vt 0.979167 0.000000
vt 0.250000 1.000000
vt 0.125000 1.000000
vt 0.125000 0.000000
vt 0.250000 0.000000
vt 0.666667 0.516667
vt 0.666667 0.416667
vt 0.687500 0.416667
vt 0.687500 0.516667
vt 0.125000 1.000000
vt 0.000000 1.000000
vt 0.000000 0.000000
vt 0.125000 0.000000
vt 0.645833 0.516667
vt 0.645833 0.416667
vt 0.666667 0.416667
vt 0.666667 0.516667
vt 0.937500 0.000000
vt 0.958333 0.000000
vt 0.958333 1.000000
vt 0.937500 1.000000
vt 0.979167 1.000000
vt 0.958333 1.000000
vt 0.958333 0.000000
vt 0.979167 0.000000
vn 0.0000 0.0000 1.0000
vn 0.0000 0.0000 -1.0000
vn -1.0000 0.0000 0.0000
vn 1.0000 0.0000 0.0000
vn 0.0000 -1.0000 0.0000
vn 0.0000 1.0000 0.0000
usemtl Material
s off
f 4/1/1 3/2/1 7/3/1 8/4/1
f 6/5/2 5/6/2 1/7/2 2/8/2
f 8/9/3 7/10/3 5/11/3 6/12/3
f 2/13/4 1/14/4 3/15/4 4/16/4
f 6/17/5 2/18/5 4/19/5 8/20/5
f 1/21/6 5/22/6 7/23/6 3/24/6
f 9/25/3 10/26/3 12/27/3 11/28/3
f 11/29/2 12/30/2 16/31/2 15/32/2
f 15/33/4 16/34/4 14/35/4 13/36/4
f 13/37/1 14/38/1 10/26/1 9/25/1
f 11/39/5 15/40/5 13/41/5 9/42/5
f 16/43/6 12/44/6 10/45/6 14/46/6
f 17/47/4 19/48/4 20/49/4 18/50/4
f 19/51/1 23/52/1 24/53/1 20/54/1
f 23/55/3 21/56/3 22/57/3 24/58/3
f 21/59/2 17/60/2 18/61/2 22/62/2
f 19/63/6 17/64/6 21/65/6 23/66/6
f 24/67/5 22/68/5 18/69/5 20/70/5
f 25/71/3 26/72/3 28/73/3 27/74/3
f 27/75/2 28/76/2 32/77/2 31/78/2
f 31/79/4 32/80/4 30/81/4 29/82/4
f 29/83/1 30/84/1 26/85/1 25/86/1
f 27/87/5 31/88/5 29/89/5 25/90/5
f 32/91/6 28/92/6 26/93/6 30/94/6
