# Blender v2.90.1 OBJ File: 'colloseum_mk4.blend'
# www.blender.org
mtllib colloseum_Around.mtl
o 平面.003
v 0.000000 -0.593750 -16.000000
v 0.000000 9.406250 -16.000000
v 6.122935 -0.593750 -14.782072
v 6.122935 9.406250 -14.782072
v 11.313708 -0.593750 -11.313708
v 11.313708 9.406250 -11.313708
v 14.782072 -0.593750 -6.122935
v 14.782072 9.406250 -6.122935
v 16.000000 -0.593750 0.000001
v 16.000000 9.406250 0.000001
v 14.782072 -0.593750 6.122936
v 14.782072 9.406250 6.122936
v 11.313708 -0.593750 11.313708
v 11.313708 9.406250 11.313708
v 6.122936 -0.593750 14.782072
v 6.122936 9.406250 14.782072
v 0.000002 -0.593750 16.000000
v 0.000002 9.406250 16.000000
v -6.122931 -0.593750 14.782074
v -6.122931 9.406250 14.782074
v -11.313705 -0.593750 11.313712
v -11.313705 9.406250 11.313712
v -14.782072 -0.593750 6.122937
v -14.782072 9.406250 6.122937
v -16.000000 -0.593750 -0.000000
v -16.000000 9.406250 -0.000000
v -14.782071 -0.593750 -6.122938
v -14.782071 9.406250 -6.122938
v -11.313704 -0.593750 -11.313712
v -11.313704 9.406250 -11.313712
v -6.122928 -0.593750 -14.782076
v -6.122928 9.406250 -14.782076
vt 1.000000 0.000000
vt 0.000000 0.000000
vt 0.000000 1.000000
vt 1.000000 1.000000
vt 0.937500 0.000000
vt 0.000000 0.000000
vt 0.000000 1.000000
vt 0.937500 1.000000
vt 1.000000 0.000000
vt 1.000000 1.000000
vt 0.000000 0.000000
vt 0.000000 1.000000
vt 1.000000 0.000000
vt 1.000000 1.000000
vt 0.000000 0.000000
vt 0.000000 1.000000
vt 1.000000 0.000000
vt 1.000000 1.000000
vt 0.000000 0.000000
vt 0.000000 1.000000
vt 1.000000 0.000000
vt 1.000000 1.000000
vt 0.000000 0.000000
vt 0.000000 1.000000
vt 1.000000 0.000000
vt 1.000000 1.000000
vt 0.000000 0.000000
vt 0.000000 1.000000
vt 1.000000 0.000000
vt 1.000000 1.000000
vt 0.000000 0.000000
vt 0.000000 1.000000
vt 1.000000 0.000000
vt 1.000000 1.000000
vt 0.000000 0.000000
vt 0.000000 1.000000
vn -0.1951 0.0000 0.9808
vn -0.5556 0.0000 0.8315
vn -0.8315 0.0000 0.5556
vn -0.9808 0.0000 0.1951
vn -0.9808 0.0000 -0.1951
vn -0.8315 0.0000 -0.5556
vn -0.5556 0.0000 -0.8315
vn -0.1951 0.0000 -0.9808
vn 0.1951 0.0000 -0.9808
vn 0.5556 0.0000 -0.8315
vn 0.8315 0.0000 -0.5556
vn 0.9808 0.0000 -0.1951
vn 0.9808 0.0000 0.1951
vn 0.8315 0.0000 0.5556
vn 0.5556 0.0000 0.8315
vn 0.1951 0.0000 0.9808
usemtl マテリアル.007
s off
f 1/1/1 3/2/1 4/3/1 2/4/1
f 3/5/2 5/6/2 6/7/2 4/8/2
f 5/6/3 7/9/3 8/10/3 6/7/3
f 7/9/4 9/11/4 10/12/4 8/10/4
f 9/11/5 11/13/5 12/14/5 10/12/5
f 11/13/6 13/15/6 14/16/6 12/14/6
f 13/15/7 15/17/7 16/18/7 14/16/7
f 15/17/8 17/19/8 18/20/8 16/18/8
f 17/19/9 19/21/9 20/22/9 18/20/9
f 19/21/10 21/23/10 22/24/10 20/22/10
f 21/23/11 23/25/11 24/26/11 22/24/11
f 23/25/12 25/27/12 26/28/12 24/26/12
f 25/27/13 27/29/13 28/30/13 26/28/13
f 27/29/14 29/31/14 30/32/14 28/30/14
f 29/31/15 31/33/15 32/34/15 30/32/15
f 31/33/16 1/35/16 2/36/16 32/34/16
