# Blender v2.90.1 OBJ File: ''
# www.blender.org
mtllib ChipGuide.mtl
o Cube
v -1.000000 0.790000 1.000000
v 1.000000 0.790000 1.000000
v -1.000000 0.790000 -1.000000
v 1.000000 0.000000 -1.000000
v -1.000000 0.000000 -1.000000
v 1.000000 0.000000 1.000000
v -1.000000 0.000000 1.000000
v 1.000000 0.790000 -1.000000
vt 0.933129 0.053073
vt 0.841588 0.053073
vt 0.841588 0.946167
vt 0.933129 0.946167
vt 0.841588 0.053073
vt 0.933129 0.053073
vt 0.933129 0.946167
vt 0.841588 0.946167
vt 0.000000 0.000000
vt 1.000000 0.000000
vt 1.000000 1.000000
vt 0.000000 1.000000
vt 0.933129 0.053073
vt 0.933129 0.946167
vt 0.841588 0.053073
vt 0.841588 0.946167
vn -1.0000 0.0000 0.0000
vn 1.0000 0.0000 0.0000
vn 0.0000 1.0000 0.0000
vn 0.0000 0.0000 -1.0000
vn 0.0000 0.0000 1.0000
usemtl Material
s off
f 4/1/1 6/2/1 2/3/1 8/4/1
f 7/5/2 5/6/2 3/7/2 1/8/2
f 7/9/3 6/10/3 4/11/3 5/12/3
f 6/13/4 7/5/4 1/8/4 2/14/4
f 5/15/5 4/1/5 8/4/5 3/16/5
